# xmcd CD database file
#
# Track frame offsets:
#	150
#	17005
#	35198
#	46403
#	61010
#	74550
#	91563
#	110530
#	132388
#	145655
#	167460
#	178025
#
# Disc length: 2535 seconds
#
# Revision: 4
# Processed by: cddbd v1.5.1PL0 Copyright (c) Steve Scherf et al.
# Submitted via: CDex 1.51
#
DISCID=9f09e50c
DTITLE=JOHNNY ALF - OLHOS NEGROS
DYEAR=1990
DGENRE=MPB
TTITLE0=ILUSÃO À TOA
TTITLE1=DOIS CORAÇÕES
TTITLE2=SEU CHOPIN, DESCULPE
TTITLE3=NÓS
TTITLE4=RAPAZ DE BEM
TTITLE5=OLHOS NEGROS
TTITLE6=O QUE É AMAR
TTITLE7=EU E A BRISA
TTITLE8=NOSSA FESTA
TTITLE9=SONHOS E FANTASIAS
TTITLE10=TEM MAIS
TTITLE11=BAR DA PRAIA
EXTD=YEAR: 1990
EXTT0=com Gal Costa\n
EXTT1=com Roberto Menescal\n
EXTT2=com Chico Buarque\n
EXTT3=com Zizi Possi\n
EXTT4=com Em lio Santiago\n
EXTT5=com Caetano Veloso\n
EXTT6=Sandra de S \n
EXTT7=com Gilberto Gil\n
EXTT8=com Leny Andrade\n
EXTT9=com M rcio Montarroyos\n
EXTT10=
EXTT11=
PLAYORDER=
